# xmcd CD database file
#
# Track frame offsets:
#	150
#	16133
#	34794
#	48043
#	65907
#	82165
#	100582
#	118369
#	134794
#	150724
#	167992
#	186319
#	201574
#	217724
#	235410
#	249303
#	269497
#	287427
#	300540
#	318602
#	335661
#
# Disc length: 4670 seconds
#
# Revision: 0
# Processed by: cddbd v1.5.2PL0 Copyright (c) Steve Scherf et al.
# Submitted via: jetAudio 7
#
DISCID=3f123c15
DTITLE=unbekannter Künstler - unbekanntes Album
DYEAR=1900
DGENRE=unbekanntes Genre
TTITLE0=Titel 1
TTITLE1=Titel 2
TTITLE2=Titel 3
TTITLE3=Titel 4
TTITLE4=Titel 5
TTITLE5=Titel 6
TTITLE6=Titel 7
TTITLE7=Titel 8
TTITLE8=Titel 9
TTITLE9=Titel 10
TTITLE10=Titel 11
TTITLE11=Titel 12
TTITLE12=Titel 13
TTITLE13=Titel 14
TTITLE14=Titel 15
TTITLE15=Titel 16
TTITLE16=Titel 17
TTITLE17=Titel 18
TTITLE18=Titel 19
TTITLE19=Titel 20
TTITLE20=Titel 21
EXTD=
EXTT0=
EXTT1=
EXTT2=
EXTT3=
EXTT4=
EXTT5=
EXTT6=
EXTT7=
EXTT8=
EXTT9=
EXTT10=
EXTT11=
EXTT12=
EXTT13=
EXTT14=
EXTT15=
EXTT16=
EXTT17=
EXTT18=
EXTT19=
EXTT20=
PLAYORDER=
